<?xml version="1.0" encoding="UTF-8"?>
<svg width="14px" height="14px" viewBox="0 0 14 14" version="1.1" xmlns="http://www.w3.org/2000/svg" xmlns:xlink="http://www.w3.org/1999/xlink">
    <!-- Generator: Sketch 53.2 (72643) - https://sketchapp.com -->
    <title>close</title>
    <desc>Created with Sketch.</desc>
    <g id="Page-1" stroke="none" stroke-width="1" fill="none" fill-rule="evenodd" fill-opacity="0.6">
        <path d="M10.2053382,7.00006191 L13.6699953,3.53540482 C13.890081,3.31552552 13.9999587,3.04842604 13.9999587,2.7340651 C13.9999587,2.41978672 13.8897921,2.15272852 13.6699953,1.93272539 L12.0673572,0.329922135 C11.8473953,0.110001563 11.5803371,0 11.2661413,0 C10.9517391,0 10.6847634,0.110001563 10.4646777,0.329922135 L7.00006191,3.79457923 L3.53536354,0.329922135 C3.31552552,0.110001563 3.04842604,0 2.73402383,0 C2.41986927,0 2.15272852,0.110001563 1.93268411,0.329922135 L0.329963411,1.93272539 C0.110084115,2.15256341 0,2.41978672 0,2.7340651 C0,3.04842604 0.109960286,3.31540169 0.329963411,3.53540482 L3.79457923,7.00006191 L0.329963411,10.464719 C0.110084115,10.6847634 0,10.9517391 0,11.2661826 C0,11.5802958 0.109960286,11.8474366 0.329963411,12.0673572 L1.93272539,13.6700366 C2.15272852,13.8901223 2.41991055,14 2.7340651,14 C3.04842604,14 3.31540169,13.8898333 3.53540482,13.6700366 L7.00010319,10.2053795 L10.4650079,13.6700366 C10.6849285,13.8901223 10.9517803,14 11.2664715,14 C11.580626,14 11.8477255,13.8898333 12.0676874,13.6700366 L13.6700366,12.0673572 C13.8901223,11.8476017 14,11.5802958 14,11.2661826 C14,10.9517391 13.8901223,10.6847634 13.6700366,10.464719 L10.2053382,7.00006191 Z" id="Path" fill="#000000" fill-rule="nonzero"></path>
    </g>
</svg>